<svg width="211" height="127" viewBox="0 0 211 127" fill="none" xmlns="http://www.w3.org/2000/svg">
<path d="M3.302 10.508C2.846 10.508 2.426 10.4 2.042 10.184C1.658 9.956 1.352 9.65 1.124 9.266C0.908 8.882 0.8 8.462 0.8 8.006C0.8 7.538 0.908 7.112 1.124 6.728C1.352 6.344 1.658 6.044 2.042 5.828C2.426 5.6 2.846 5.486 3.302 5.486C3.77 5.486 4.196 5.6 4.58 5.828C4.976 6.044 5.282 6.344 5.498 6.728C5.726 7.112 5.84 7.538 5.84 8.006C5.84 8.462 5.726 8.882 5.498 9.266C5.282 9.65 4.976 9.956 4.58 10.184C4.196 10.4 3.77 10.508 3.302 10.508ZM15.6815 1.436C17.0015 1.436 18.1595 1.694 19.1555 2.21C20.1635 2.726 20.9375 3.464 21.4775 4.424C22.0295 5.372 22.3055 6.476 22.3055 7.736C22.3055 8.996 22.0295 10.1 21.4775 11.048C20.9375 11.984 20.1635 12.71 19.1555 13.226C18.1595 13.742 17.0015 14 15.6815 14H11.2895V1.436H15.6815ZM15.5915 11.858C16.9115 11.858 17.9315 11.498 18.6515 10.778C19.3715 10.058 19.7315 9.044 19.7315 7.736C19.7315 6.428 19.3715 5.408 18.6515 4.676C17.9315 3.932 16.9115 3.56 15.5915 3.56H13.8095V11.858H15.5915ZM22.5988 8.978C22.5988 7.97 22.7968 7.076 23.1928 6.296C23.6008 5.516 24.1468 4.916 24.8308 4.496C25.5268 4.076 26.3008 3.866 27.1528 3.866C27.8968 3.866 28.5448 4.016 29.0968 4.316C29.6608 4.616 30.1108 4.994 30.4468 5.45V4.028H32.9848V14H30.4468V12.542C30.1228 13.01 29.6728 13.4 29.0968 13.712C28.5328 14.012 27.8788 14.162 27.1348 14.162C26.2948 14.162 25.5268 13.946 24.8308 13.514C24.1468 13.082 23.6008 12.476 23.1928 11.696C22.7968 10.904 22.5988 9.998 22.5988 8.978ZM30.4468 9.014C30.4468 8.402 30.3268 7.88 30.0868 7.448C29.8468 7.004 29.5228 6.668 29.1148 6.44C28.7068 6.2 28.2688 6.08 27.8008 6.08C27.3328 6.08 26.9008 6.194 26.5048 6.422C26.1088 6.65 25.7848 6.986 25.5328 7.43C25.2928 7.862 25.1728 8.378 25.1728 8.978C25.1728 9.578 25.2928 10.106 25.5328 10.562C25.7848 11.006 26.1088 11.348 26.5048 11.588C26.9128 11.828 27.3448 11.948 27.8008 11.948C28.2688 11.948 28.7068 11.834 29.1148 11.606C29.5228 11.366 29.8468 11.03 30.0868 10.598C30.3268 10.154 30.4468 9.626 30.4468 9.014ZM37.4351 6.098V10.922C37.4351 11.258 37.5131 11.504 37.6691 11.66C37.8371 11.804 38.1131 11.876 38.4971 11.876H39.6671V14H38.0831C35.9591 14 34.8971 12.968 34.8971 10.904V6.098H33.7091V4.028H34.8971V1.562H37.4351V4.028H39.6671V6.098H37.4351ZM39.8866 8.978C39.8866 7.97 40.0846 7.076 40.4806 6.296C40.8886 5.516 41.4346 4.916 42.1186 4.496C42.8146 4.076 43.5886 3.866 44.4406 3.866C45.1846 3.866 45.8326 4.016 46.3846 4.316C46.9486 4.616 47.3986 4.994 47.7346 5.45V4.028H50.2726V14H47.7346V12.542C47.4106 13.01 46.9606 13.4 46.3846 13.712C45.8206 14.012 45.1666 14.162 44.4226 14.162C43.5826 14.162 42.8146 13.946 42.1186 13.514C41.4346 13.082 40.8886 12.476 40.4806 11.696C40.0846 10.904 39.8866 9.998 39.8866 8.978ZM47.7346 9.014C47.7346 8.402 47.6146 7.88 47.3746 7.448C47.1346 7.004 46.8106 6.668 46.4026 6.44C45.9946 6.2 45.5566 6.08 45.0886 6.08C44.6206 6.08 44.1886 6.194 43.7926 6.422C43.3966 6.65 43.0726 6.986 42.8206 7.43C42.5806 7.862 42.4606 8.378 42.4606 8.978C42.4606 9.578 42.5806 10.106 42.8206 10.562C43.0726 11.006 43.3966 11.348 43.7926 11.588C44.2006 11.828 44.6326 11.948 45.0886 11.948C45.5566 11.948 45.9946 11.834 46.4026 11.606C46.8106 11.366 47.1346 11.03 47.3746 10.598C47.6146 10.154 47.7346 9.626 47.7346 9.014ZM54.3088 5.486C54.6328 5.006 55.0768 4.616 55.6408 4.316C56.2168 4.016 56.8708 3.866 57.6028 3.866C58.4548 3.866 59.2228 4.076 59.9068 4.496C60.6028 4.916 61.1488 5.516 61.5448 6.296C61.9528 7.064 62.1568 7.958 62.1568 8.978C62.1568 9.998 61.9528 10.904 61.5448 11.696C61.1488 12.476 60.6028 13.082 59.9068 13.514C59.2228 13.946 58.4548 14.162 57.6028 14.162C56.8588 14.162 56.2048 14.018 55.6408 13.73C55.0888 13.43 54.6448 13.046 54.3088 12.578V14H51.7888V0.68H54.3088V5.486ZM59.5828 8.978C59.5828 8.378 59.4568 7.862 59.2048 7.43C58.9648 6.986 58.6408 6.65 58.2328 6.422C57.8368 6.194 57.4048 6.08 56.9368 6.08C56.4808 6.08 56.0488 6.2 55.6408 6.44C55.2448 6.668 54.9208 7.004 54.6688 7.448C54.4288 7.892 54.3088 8.414 54.3088 9.014C54.3088 9.614 54.4288 10.136 54.6688 10.58C54.9208 11.024 55.2448 11.366 55.6408 11.606C56.0488 11.834 56.4808 11.948 56.9368 11.948C57.4048 11.948 57.8368 11.828 58.2328 11.588C58.6408 11.348 58.9648 11.006 59.2048 10.562C59.4568 10.118 59.5828 9.59 59.5828 8.978ZM62.395 8.978C62.395 7.97 62.593 7.076 62.989 6.296C63.397 5.516 63.943 4.916 64.627 4.496C65.323 4.076 66.097 3.866 66.949 3.866C67.693 3.866 68.341 4.016 68.893 4.316C69.457 4.616 69.907 4.994 70.243 5.45V4.028H72.781V14H70.243V12.542C69.919 13.01 69.469 13.4 68.893 13.712C68.329 14.012 67.675 14.162 66.931 14.162C66.091 14.162 65.323 13.946 64.627 13.514C63.943 13.082 63.397 12.476 62.989 11.696C62.593 10.904 62.395 9.998 62.395 8.978ZM70.243 9.014C70.243 8.402 70.123 7.88 69.883 7.448C69.643 7.004 69.319 6.668 68.911 6.44C68.503 6.2 68.065 6.08 67.597 6.08C67.129 6.08 66.697 6.194 66.301 6.422C65.905 6.65 65.581 6.986 65.329 7.43C65.089 7.862 64.969 8.378 64.969 8.978C64.969 9.578 65.089 10.106 65.329 10.562C65.581 11.006 65.905 11.348 66.301 11.588C66.709 11.828 67.141 11.948 67.597 11.948C68.065 11.948 68.503 11.834 68.911 11.606C69.319 11.366 69.643 11.03 69.883 10.598C70.123 10.154 70.243 9.626 70.243 9.014ZM78.1132 14.162C77.2972 14.162 76.5652 14.018 75.9172 13.73C75.2692 13.43 74.7532 13.028 74.3692 12.524C73.9972 12.02 73.7932 11.462 73.7572 10.85H76.2952C76.3432 11.234 76.5292 11.552 76.8532 11.804C77.1892 12.056 77.6032 12.182 78.0952 12.182C78.5752 12.182 78.9472 12.086 79.2112 11.894C79.4872 11.702 79.6252 11.456 79.6252 11.156C79.6252 10.832 79.4572 10.592 79.1212 10.436C78.7972 10.268 78.2752 10.088 77.5552 9.896C76.8112 9.716 76.1992 9.53 75.7192 9.338C75.2512 9.146 74.8432 8.852 74.4952 8.456C74.1592 8.06 73.9912 7.526 73.9912 6.854C73.9912 6.302 74.1472 5.798 74.4592 5.342C74.7832 4.886 75.2392 4.526 75.8272 4.262C76.4272 3.998 77.1292 3.866 77.9332 3.866C79.1212 3.866 80.0692 4.166 80.7772 4.766C81.4852 5.354 81.8752 6.152 81.9472 7.16H79.5352C79.4992 6.764 79.3312 6.452 79.0312 6.224C78.7432 5.984 78.3532 5.864 77.8612 5.864C77.4052 5.864 77.0512 5.948 76.7992 6.116C76.5592 6.284 76.4392 6.518 76.4392 6.818C76.4392 7.154 76.6072 7.412 76.9432 7.592C77.2792 7.76 77.8012 7.934 78.5092 8.114C79.2292 8.294 79.8232 8.48 80.2912 8.672C80.7592 8.864 81.1612 9.164 81.4972 9.572C81.8452 9.968 82.0252 10.496 82.0372 11.156C82.0372 11.732 81.8752 12.248 81.5512 12.704C81.2392 13.16 80.7832 13.52 80.1832 13.784C79.5952 14.036 78.9052 14.162 78.1132 14.162ZM92.4308 8.798C92.4308 9.158 92.4068 9.482 92.3588 9.77H85.0688C85.1288 10.49 85.3808 11.054 85.8248 11.462C86.2688 11.87 86.8148 12.074 87.4628 12.074C88.3988 12.074 89.0648 11.672 89.4608 10.868H92.1788C91.8908 11.828 91.3388 12.62 90.5228 13.244C89.7068 13.856 88.7048 14.162 87.5168 14.162C86.5568 14.162 85.6928 13.952 84.9248 13.532C84.1688 13.1 83.5748 12.494 83.1428 11.714C82.7228 10.934 82.5128 10.034 82.5128 9.014C82.5128 7.982 82.7228 7.076 83.1428 6.296C83.5628 5.516 84.1508 4.916 84.9068 4.496C85.6628 4.076 86.5328 3.866 87.5168 3.866C88.4648 3.866 89.3108 4.07 90.0548 4.478C90.8108 4.886 91.3928 5.468 91.8008 6.224C92.2208 6.968 92.4308 7.826 92.4308 8.798ZM89.8208 8.078C89.8088 7.43 89.5748 6.914 89.1188 6.53C88.6628 6.134 88.1048 5.936 87.4448 5.936C86.8208 5.936 86.2928 6.128 85.8608 6.512C85.4408 6.884 85.1828 7.406 85.0868 8.078H89.8208ZM110.367 1.436V14H107.847V5.828L104.481 14H102.573L99.1893 5.828V14H96.6693V1.436H99.5313L103.527 10.778L107.523 1.436H110.367ZM111.266 8.978C111.266 7.97 111.464 7.076 111.86 6.296C112.268 5.516 112.814 4.916 113.498 4.496C114.194 4.076 114.968 3.866 115.82 3.866C116.564 3.866 117.212 4.016 117.764 4.316C118.328 4.616 118.778 4.994 119.114 5.45V4.028H121.652V14H119.114V12.542C118.79 13.01 118.34 13.4 117.764 13.712C117.2 14.012 116.546 14.162 115.802 14.162C114.962 14.162 114.194 13.946 113.498 13.514C112.814 13.082 112.268 12.476 111.86 11.696C111.464 10.904 111.266 9.998 111.266 8.978ZM119.114 9.014C119.114 8.402 118.994 7.88 118.754 7.448C118.514 7.004 118.19 6.668 117.782 6.44C117.374 6.2 116.936 6.08 116.468 6.08C116 6.08 115.568 6.194 115.172 6.422C114.776 6.65 114.452 6.986 114.2 7.43C113.96 7.862 113.84 8.378 113.84 8.978C113.84 9.578 113.96 10.106 114.2 10.562C114.452 11.006 114.776 11.348 115.172 11.588C115.58 11.828 116.012 11.948 116.468 11.948C116.936 11.948 117.374 11.834 117.782 11.606C118.19 11.366 118.514 11.03 118.754 10.598C118.994 10.154 119.114 9.626 119.114 9.014ZM128.694 3.884C129.882 3.884 130.842 4.262 131.574 5.018C132.306 5.762 132.672 6.806 132.672 8.15V14H130.152V8.492C130.152 7.7 129.954 7.094 129.558 6.674C129.162 6.242 128.622 6.026 127.938 6.026C127.242 6.026 126.69 6.242 126.282 6.674C125.886 7.094 125.688 7.7 125.688 8.492V14H123.168V4.028H125.688V5.27C126.024 4.838 126.45 4.502 126.966 4.262C127.494 4.01 128.07 3.884 128.694 3.884ZM133.475 8.978C133.475 7.97 133.673 7.076 134.069 6.296C134.477 5.516 135.023 4.916 135.707 4.496C136.403 4.076 137.177 3.866 138.029 3.866C138.773 3.866 139.421 4.016 139.973 4.316C140.537 4.616 140.987 4.994 141.323 5.45V4.028H143.861V14H141.323V12.542C140.999 13.01 140.549 13.4 139.973 13.712C139.409 14.012 138.755 14.162 138.011 14.162C137.171 14.162 136.403 13.946 135.707 13.514C135.023 13.082 134.477 12.476 134.069 11.696C133.673 10.904 133.475 9.998 133.475 8.978ZM141.323 9.014C141.323 8.402 141.203 7.88 140.963 7.448C140.723 7.004 140.399 6.668 139.991 6.44C139.583 6.2 139.145 6.08 138.677 6.08C138.209 6.08 137.777 6.194 137.381 6.422C136.985 6.65 136.661 6.986 136.409 7.43C136.169 7.862 136.049 8.378 136.049 8.978C136.049 9.578 136.169 10.106 136.409 10.562C136.661 11.006 136.985 11.348 137.381 11.588C137.789 11.828 138.221 11.948 138.677 11.948C139.145 11.948 139.583 11.834 139.991 11.606C140.399 11.366 140.723 11.03 140.963 10.598C141.203 10.154 141.323 9.626 141.323 9.014ZM149.284 3.866C150.028 3.866 150.682 4.016 151.246 4.316C151.81 4.604 152.254 4.982 152.578 5.45V4.028H155.116V14.072C155.116 14.996 154.93 15.818 154.558 16.538C154.186 17.27 153.628 17.846 152.884 18.266C152.14 18.698 151.24 18.914 150.184 18.914C148.768 18.914 147.604 18.584 146.692 17.924C145.792 17.264 145.282 16.364 145.162 15.224H147.664C147.796 15.68 148.078 16.04 148.51 16.304C148.954 16.58 149.488 16.718 150.112 16.718C150.844 16.718 151.438 16.496 151.894 16.052C152.35 15.62 152.578 14.96 152.578 14.072V12.524C152.254 12.992 151.804 13.382 151.228 13.694C150.664 14.006 150.016 14.162 149.284 14.162C148.444 14.162 147.676 13.946 146.98 13.514C146.284 13.082 145.732 12.476 145.324 11.696C144.928 10.904 144.73 9.998 144.73 8.978C144.73 7.97 144.928 7.076 145.324 6.296C145.732 5.516 146.278 4.916 146.962 4.496C147.658 4.076 148.432 3.866 149.284 3.866ZM152.578 9.014C152.578 8.402 152.458 7.88 152.218 7.448C151.978 7.004 151.654 6.668 151.246 6.44C150.838 6.2 150.4 6.08 149.932 6.08C149.464 6.08 149.032 6.194 148.636 6.422C148.24 6.65 147.916 6.986 147.664 7.43C147.424 7.862 147.304 8.378 147.304 8.978C147.304 9.578 147.424 10.106 147.664 10.562C147.916 11.006 148.24 11.348 148.636 11.588C149.044 11.828 149.476 11.948 149.932 11.948C150.4 11.948 150.838 11.834 151.246 11.606C151.654 11.366 151.978 11.03 152.218 10.598C152.458 10.154 152.578 9.626 152.578 9.014ZM165.902 8.798C165.902 9.158 165.878 9.482 165.83 9.77H158.54C158.6 10.49 158.852 11.054 159.296 11.462C159.74 11.87 160.286 12.074 160.934 12.074C161.87 12.074 162.536 11.672 162.932 10.868H165.65C165.362 11.828 164.81 12.62 163.994 13.244C163.178 13.856 162.176 14.162 160.988 14.162C160.028 14.162 159.164 13.952 158.396 13.532C157.64 13.1 157.046 12.494 156.614 11.714C156.194 10.934 155.984 10.034 155.984 9.014C155.984 7.982 156.194 7.076 156.614 6.296C157.034 5.516 157.622 4.916 158.378 4.496C159.134 4.076 160.004 3.866 160.988 3.866C161.936 3.866 162.782 4.07 163.526 4.478C164.282 4.886 164.864 5.468 165.272 6.224C165.692 6.968 165.902 7.826 165.902 8.798ZM163.292 8.078C163.28 7.43 163.046 6.914 162.59 6.53C162.134 6.134 161.576 5.936 160.916 5.936C160.292 5.936 159.764 6.128 159.332 6.512C158.912 6.884 158.654 7.406 158.558 8.078H163.292ZM179.18 3.884C180.404 3.884 181.388 4.262 182.132 5.018C182.888 5.762 183.266 6.806 183.266 8.15V14H180.746V8.492C180.746 7.712 180.548 7.118 180.152 6.71C179.756 6.29 179.216 6.08 178.532 6.08C177.848 6.08 177.302 6.29 176.894 6.71C176.498 7.118 176.3 7.712 176.3 8.492V14H173.78V8.492C173.78 7.712 173.582 7.118 173.186 6.71C172.79 6.29 172.25 6.08 171.566 6.08C170.87 6.08 170.318 6.29 169.91 6.71C169.514 7.118 169.316 7.712 169.316 8.492V14H166.796V4.028H169.316V5.234C169.64 4.814 170.054 4.484 170.558 4.244C171.074 4.004 171.638 3.884 172.25 3.884C173.03 3.884 173.726 4.052 174.338 4.388C174.95 4.712 175.424 5.18 175.76 5.792C176.084 5.216 176.552 4.754 177.164 4.406C177.788 4.058 178.46 3.884 179.18 3.884ZM193.982 8.798C193.982 9.158 193.958 9.482 193.91 9.77H186.62C186.68 10.49 186.932 11.054 187.376 11.462C187.82 11.87 188.366 12.074 189.014 12.074C189.95 12.074 190.616 11.672 191.012 10.868H193.73C193.442 11.828 192.89 12.62 192.074 13.244C191.258 13.856 190.256 14.162 189.068 14.162C188.108 14.162 187.244 13.952 186.476 13.532C185.72 13.1 185.126 12.494 184.694 11.714C184.274 10.934 184.064 10.034 184.064 9.014C184.064 7.982 184.274 7.076 184.694 6.296C185.114 5.516 185.702 4.916 186.458 4.496C187.214 4.076 188.084 3.866 189.068 3.866C190.016 3.866 190.862 4.07 191.606 4.478C192.362 4.886 192.944 5.468 193.352 6.224C193.772 6.968 193.982 7.826 193.982 8.798ZM191.372 8.078C191.36 7.43 191.126 6.914 190.67 6.53C190.214 6.134 189.656 5.936 188.996 5.936C188.372 5.936 187.844 6.128 187.412 6.512C186.992 6.884 186.734 7.406 186.638 8.078H191.372ZM200.403 3.884C201.591 3.884 202.551 4.262 203.283 5.018C204.015 5.762 204.381 6.806 204.381 8.15V14H201.861V8.492C201.861 7.7 201.663 7.094 201.267 6.674C200.871 6.242 200.331 6.026 199.647 6.026C198.951 6.026 198.399 6.242 197.991 6.674C197.595 7.094 197.397 7.7 197.397 8.492V14H194.877V4.028H197.397V5.27C197.733 4.838 198.159 4.502 198.675 4.262C199.203 4.01 199.779 3.884 200.403 3.884ZM208.766 6.098V10.922C208.766 11.258 208.844 11.504 209 11.66C209.168 11.804 209.444 11.876 209.828 11.876H210.998V14H209.414C207.29 14 206.228 12.968 206.228 10.904V6.098H205.04V4.028H206.228V1.562H208.766V4.028H210.998V6.098H208.766ZM3.302 37.508C2.846 37.508 2.426 37.4 2.042 37.184C1.658 36.956 1.352 36.65 1.124 36.266C0.908 35.882 0.8 35.462 0.8 35.006C0.8 34.538 0.908 34.112 1.124 33.728C1.352 33.344 1.658 33.044 2.042 32.828C2.426 32.6 2.846 32.486 3.302 32.486C3.77 32.486 4.196 32.6 4.58 32.828C4.976 33.044 5.282 33.344 5.498 33.728C5.726 34.112 5.84 34.538 5.84 35.006C5.84 35.462 5.726 35.882 5.498 36.266C5.282 36.65 4.976 36.956 4.58 37.184C4.196 37.4 3.77 37.508 3.302 37.508ZM10.6775 34.7C10.6775 33.464 10.9535 32.36 11.5055 31.388C12.0695 30.404 12.8315 29.642 13.7915 29.102C14.7635 28.55 15.8495 28.274 17.0495 28.274C18.4535 28.274 19.6835 28.634 20.7395 29.354C21.7955 30.074 22.5335 31.07 22.9535 32.342H20.0555C19.7675 31.742 19.3595 31.292 18.8315 30.992C18.3155 30.692 17.7155 30.542 17.0315 30.542C16.2995 30.542 15.6455 30.716 15.0695 31.064C14.5055 31.4 14.0615 31.88 13.7375 32.504C13.4255 33.128 13.2695 33.86 13.2695 34.7C13.2695 35.528 13.4255 36.26 13.7375 36.896C14.0615 37.52 14.5055 38.006 15.0695 38.354C15.6455 38.69 16.2995 38.858 17.0315 38.858C17.7155 38.858 18.3155 38.708 18.8315 38.408C19.3595 38.096 19.7675 37.64 20.0555 37.04H22.9535C22.5335 38.324 21.7955 39.326 20.7395 40.046C19.6955 40.754 18.4655 41.108 17.0495 41.108C15.8495 41.108 14.7635 40.838 13.7915 40.298C12.8315 39.746 12.0695 38.984 11.5055 38.012C10.9535 37.04 10.6775 35.936 10.6775 34.7ZM26.6809 39.002H30.8209V41H24.1609V28.436H26.6809V39.002ZM33.9976 28.436V41H31.4776V28.436H33.9976ZM3.302 64.508C2.846 64.508 2.426 64.4 2.042 64.184C1.658 63.956 1.352 63.65 1.124 63.266C0.908 62.882 0.8 62.462 0.8 62.006C0.8 61.538 0.908 61.112 1.124 60.728C1.352 60.344 1.658 60.044 2.042 59.828C2.426 59.6 2.846 59.486 3.302 59.486C3.77 59.486 4.196 59.6 4.58 59.828C4.976 60.044 5.282 60.344 5.498 60.728C5.726 61.112 5.84 61.538 5.84 62.006C5.84 62.462 5.726 62.882 5.498 63.266C5.282 63.65 4.976 63.956 4.58 64.184C4.196 64.4 3.77 64.508 3.302 64.508ZM18.9935 65.606H13.9895L13.1615 68H10.5155L15.0335 55.418H17.9675L22.4855 68H19.8215L18.9935 65.606ZM18.3095 63.59L16.4915 58.334L14.6735 63.59H18.3095ZM32.3913 59.324C32.3913 59.996 32.2293 60.626 31.9053 61.214C31.5933 61.802 31.0953 62.276 30.4113 62.636C29.7393 62.996 28.8873 63.176 27.8553 63.176H25.7493V68H23.2293V55.436H27.8553C28.8273 55.436 29.6553 55.604 30.3393 55.94C31.0233 56.276 31.5333 56.738 31.8693 57.326C32.2173 57.914 32.3913 58.58 32.3913 59.324ZM27.7473 61.142C28.4433 61.142 28.9593 60.986 29.2953 60.674C29.6313 60.35 29.7993 59.9 29.7993 59.324C29.7993 58.1 29.1153 57.488 27.7473 57.488H25.7493V61.142H27.7473ZM35.7554 55.436V68H33.2354V55.436H35.7554ZM45.0363 55.436C46.3563 55.436 47.5143 55.694 48.5103 56.21C49.5183 56.726 50.2923 57.464 50.8323 58.424C51.3843 59.372 51.6603 60.476 51.6603 61.736C51.6603 62.996 51.3843 64.1 50.8323 65.048C50.2923 65.984 49.5183 66.71 48.5103 67.226C47.5143 67.742 46.3563 68 45.0363 68H40.6443V55.436H45.0363ZM44.9463 65.858C46.2663 65.858 47.2863 65.498 48.0063 64.778C48.7263 64.058 49.0863 63.044 49.0863 61.736C49.0863 60.428 48.7263 59.408 48.0063 58.676C47.2863 57.932 46.2663 57.56 44.9463 57.56H43.1643V65.858H44.9463ZM61.8716 62.798C61.8716 63.158 61.8476 63.482 61.7996 63.77H54.5096C54.5696 64.49 54.8216 65.054 55.2656 65.462C55.7096 65.87 56.2556 66.074 56.9036 66.074C57.8396 66.074 58.5056 65.672 58.9016 64.868H61.6196C61.3316 65.828 60.7796 66.62 59.9636 67.244C59.1476 67.856 58.1456 68.162 56.9576 68.162C55.9976 68.162 55.1336 67.952 54.3656 67.532C53.6096 67.1 53.0156 66.494 52.5836 65.714C52.1636 64.934 51.9536 64.034 51.9536 63.014C51.9536 61.982 52.1636 61.076 52.5836 60.296C53.0036 59.516 53.5916 58.916 54.3476 58.496C55.1036 58.076 55.9736 57.866 56.9576 57.866C57.9056 57.866 58.7516 58.07 59.4956 58.478C60.2516 58.886 60.8336 59.468 61.2416 60.224C61.6616 60.968 61.8716 61.826 61.8716 62.798ZM59.2616 62.078C59.2496 61.43 59.0156 60.914 58.5596 60.53C58.1036 60.134 57.5456 59.936 56.8856 59.936C56.2616 59.936 55.7336 60.128 55.3016 60.512C54.8816 60.884 54.6236 61.406 54.5276 62.078H59.2616ZM66.582 68.162C65.766 68.162 65.034 68.018 64.386 67.73C63.738 67.43 63.222 67.028 62.838 66.524C62.466 66.02 62.262 65.462 62.226 64.85H64.764C64.812 65.234 64.998 65.552 65.322 65.804C65.658 66.056 66.072 66.182 66.564 66.182C67.044 66.182 67.416 66.086 67.68 65.894C67.956 65.702 68.094 65.456 68.094 65.156C68.094 64.832 67.926 64.592 67.59 64.436C67.266 64.268 66.744 64.088 66.024 63.896C65.28 63.716 64.668 63.53 64.188 63.338C63.72 63.146 63.312 62.852 62.964 62.456C62.628 62.06 62.46 61.526 62.46 60.854C62.46 60.302 62.616 59.798 62.928 59.342C63.252 58.886 63.708 58.526 64.296 58.262C64.896 57.998 65.598 57.866 66.402 57.866C67.59 57.866 68.538 58.166 69.246 58.766C69.954 59.354 70.344 60.152 70.416 61.16H68.004C67.968 60.764 67.8 60.452 67.5 60.224C67.212 59.984 66.822 59.864 66.33 59.864C65.874 59.864 65.52 59.948 65.268 60.116C65.028 60.284 64.908 60.518 64.908 60.818C64.908 61.154 65.076 61.412 65.412 61.592C65.748 61.76 66.27 61.934 66.978 62.114C67.698 62.294 68.292 62.48 68.76 62.672C69.228 62.864 69.63 63.164 69.966 63.572C70.314 63.968 70.494 64.496 70.506 65.156C70.506 65.732 70.344 66.248 70.02 66.704C69.708 67.16 69.252 67.52 68.652 67.784C68.064 68.036 67.374 68.162 66.582 68.162ZM72.9076 56.84C72.4636 56.84 72.0916 56.702 71.7916 56.426C71.5036 56.138 71.3596 55.784 71.3596 55.364C71.3596 54.944 71.5036 54.596 71.7916 54.32C72.0916 54.032 72.4636 53.888 72.9076 53.888C73.3516 53.888 73.7176 54.032 74.0056 54.32C74.3056 54.596 74.4556 54.944 74.4556 55.364C74.4556 55.784 74.3056 56.138 74.0056 56.426C73.7176 56.702 73.3516 56.84 72.9076 56.84ZM74.1496 58.028V68H71.6296V58.028H74.1496ZM79.6003 57.866C80.3443 57.866 80.9983 58.016 81.5623 58.316C82.1263 58.604 82.5703 58.982 82.8943 59.45V58.028H85.4323V68.072C85.4323 68.996 85.2463 69.818 84.8743 70.538C84.5023 71.27 83.9443 71.846 83.2003 72.266C82.4563 72.698 81.5563 72.914 80.5003 72.914C79.0843 72.914 77.9203 72.584 77.0083 71.924C76.1083 71.264 75.5983 70.364 75.4783 69.224H77.9803C78.1123 69.68 78.3943 70.04 78.8263 70.304C79.2703 70.58 79.8043 70.718 80.4283 70.718C81.1603 70.718 81.7543 70.496 82.2103 70.052C82.6663 69.62 82.8943 68.96 82.8943 68.072V66.524C82.5703 66.992 82.1203 67.382 81.5443 67.694C80.9803 68.006 80.3323 68.162 79.6003 68.162C78.7603 68.162 77.9923 67.946 77.2963 67.514C76.6003 67.082 76.0483 66.476 75.6403 65.696C75.2443 64.904 75.0463 63.998 75.0463 62.978C75.0463 61.97 75.2443 61.076 75.6403 60.296C76.0483 59.516 76.5943 58.916 77.2783 58.496C77.9743 58.076 78.7483 57.866 79.6003 57.866ZM82.8943 63.014C82.8943 62.402 82.7743 61.88 82.5343 61.448C82.2943 61.004 81.9703 60.668 81.5623 60.44C81.1543 60.2 80.7163 60.08 80.2483 60.08C79.7803 60.08 79.3483 60.194 78.9523 60.422C78.5563 60.65 78.2323 60.986 77.9803 61.43C77.7403 61.862 77.6203 62.378 77.6203 62.978C77.6203 63.578 77.7403 64.106 77.9803 64.562C78.2323 65.006 78.5563 65.348 78.9523 65.588C79.3603 65.828 79.7923 65.948 80.2483 65.948C80.7163 65.948 81.1543 65.834 81.5623 65.606C81.9703 65.366 82.2943 65.03 82.5343 64.598C82.7743 64.154 82.8943 63.626 82.8943 63.014ZM92.4746 57.884C93.6626 57.884 94.6226 58.262 95.3546 59.018C96.0866 59.762 96.4526 60.806 96.4526 62.15V68H93.9326V62.492C93.9326 61.7 93.7346 61.094 93.3386 60.674C92.9426 60.242 92.4026 60.026 91.7186 60.026C91.0226 60.026 90.4706 60.242 90.0626 60.674C89.6666 61.094 89.4686 61.7 89.4686 62.492V68H86.9486V58.028H89.4686V59.27C89.8046 58.838 90.2306 58.502 90.7466 58.262C91.2746 58.01 91.8506 57.884 92.4746 57.884ZM3.302 91.508C2.846 91.508 2.426 91.4 2.042 91.184C1.658 90.956 1.352 90.65 1.124 90.266C0.908 89.882 0.8 89.462 0.8 89.006C0.8 88.538 0.908 88.112 1.124 87.728C1.352 87.344 1.658 87.044 2.042 86.828C2.426 86.6 2.846 86.486 3.302 86.486C3.77 86.486 4.196 86.6 4.58 86.828C4.976 87.044 5.282 87.344 5.498 87.728C5.726 88.112 5.84 88.538 5.84 89.006C5.84 89.462 5.726 89.882 5.498 90.266C5.282 90.65 4.976 90.956 4.58 91.184C4.196 91.4 3.77 91.508 3.302 91.508ZM22.5755 82.436L17.9675 95H14.9075L10.2995 82.436H12.9995L16.4555 92.426L19.8935 82.436H22.5755ZM32.4114 89.798C32.4114 90.158 32.3874 90.482 32.3394 90.77H25.0494C25.1094 91.49 25.3614 92.054 25.8054 92.462C26.2494 92.87 26.7954 93.074 27.4434 93.074C28.3794 93.074 29.0454 92.672 29.4414 91.868H32.1594C31.8714 92.828 31.3194 93.62 30.5034 94.244C29.6874 94.856 28.6854 95.162 27.4974 95.162C26.5374 95.162 25.6734 94.952 24.9054 94.532C24.1494 94.1 23.5554 93.494 23.1234 92.714C22.7034 91.934 22.4934 91.034 22.4934 90.014C22.4934 88.982 22.7034 88.076 23.1234 87.296C23.5434 86.516 24.1314 85.916 24.8874 85.496C25.6434 85.076 26.5134 84.866 27.4974 84.866C28.4454 84.866 29.2914 85.07 30.0354 85.478C30.7914 85.886 31.3734 86.468 31.7814 87.224C32.2014 87.968 32.4114 88.826 32.4114 89.798ZM29.8014 89.078C29.7894 88.43 29.5554 87.914 29.0994 87.53C28.6434 87.134 28.0854 86.936 27.4254 86.936C26.8014 86.936 26.2734 87.128 25.8414 87.512C25.4214 87.884 25.1634 88.406 25.0674 89.078H29.8014ZM35.8258 86.576C36.1498 86.048 36.5698 85.634 37.0858 85.334C37.6138 85.034 38.2138 84.884 38.8858 84.884V87.53H38.2198C37.4278 87.53 36.8278 87.716 36.4198 88.088C36.0238 88.46 35.8258 89.108 35.8258 90.032V95H33.3058V85.028H35.8258V86.576ZM43.4541 95.162C42.6381 95.162 41.9061 95.018 41.2581 94.73C40.6101 94.43 40.0941 94.028 39.7101 93.524C39.3381 93.02 39.1341 92.462 39.0981 91.85H41.6361C41.6841 92.234 41.8701 92.552 42.1941 92.804C42.5301 93.056 42.9441 93.182 43.4361 93.182C43.9161 93.182 44.2881 93.086 44.5521 92.894C44.8281 92.702 44.9661 92.456 44.9661 92.156C44.9661 91.832 44.7981 91.592 44.4621 91.436C44.1381 91.268 43.6161 91.088 42.8961 90.896C42.1521 90.716 41.5401 90.53 41.0601 90.338C40.5921 90.146 40.1841 89.852 39.8361 89.456C39.5001 89.06 39.3321 88.526 39.3321 87.854C39.3321 87.302 39.4881 86.798 39.8001 86.342C40.1241 85.886 40.5801 85.526 41.1681 85.262C41.7681 84.998 42.4701 84.866 43.2741 84.866C44.4621 84.866 45.4101 85.166 46.1181 85.766C46.8261 86.354 47.2161 87.152 47.2881 88.16H44.8761C44.8401 87.764 44.6721 87.452 44.3721 87.224C44.0841 86.984 43.6941 86.864 43.2021 86.864C42.7461 86.864 42.3921 86.948 42.1401 87.116C41.9001 87.284 41.7801 87.518 41.7801 87.818C41.7801 88.154 41.9481 88.412 42.2841 88.592C42.6201 88.76 43.1421 88.934 43.8501 89.114C44.5701 89.294 45.1641 89.48 45.6321 89.672C46.1001 89.864 46.5021 90.164 46.8381 90.572C47.1861 90.968 47.3661 91.496 47.3781 92.156C47.3781 92.732 47.2161 93.248 46.8921 93.704C46.5801 94.16 46.1241 94.52 45.5241 94.784C44.9361 95.036 44.2461 95.162 43.4541 95.162ZM49.7797 83.84C49.3357 83.84 48.9637 83.702 48.6637 83.426C48.3757 83.138 48.2317 82.784 48.2317 82.364C48.2317 81.944 48.3757 81.596 48.6637 81.32C48.9637 81.032 49.3357 80.888 49.7797 80.888C50.2237 80.888 50.5897 81.032 50.8777 81.32C51.1777 81.596 51.3277 81.944 51.3277 82.364C51.3277 82.784 51.1777 83.138 50.8777 83.426C50.5897 83.702 50.2237 83.84 49.7797 83.84ZM51.0217 85.028V95H48.5017V85.028H51.0217ZM56.9945 95.162C56.0345 95.162 55.1705 94.952 54.4025 94.532C53.6345 94.1 53.0285 93.494 52.5845 92.714C52.1525 91.934 51.9365 91.034 51.9365 90.014C51.9365 88.994 52.1585 88.094 52.6025 87.314C53.0585 86.534 53.6765 85.934 54.4565 85.514C55.2365 85.082 56.1065 84.866 57.0665 84.866C58.0265 84.866 58.8965 85.082 59.6765 85.514C60.4565 85.934 61.0685 86.534 61.5125 87.314C61.9685 88.094 62.1965 88.994 62.1965 90.014C62.1965 91.034 61.9625 91.934 61.4945 92.714C61.0385 93.494 60.4145 94.1 59.6225 94.532C58.8425 94.952 57.9665 95.162 56.9945 95.162ZM56.9945 92.966C57.4505 92.966 57.8765 92.858 58.2725 92.642C58.6805 92.414 59.0045 92.078 59.2445 91.634C59.4845 91.19 59.6045 90.65 59.6045 90.014C59.6045 89.066 59.3525 88.34 58.8485 87.836C58.3565 87.32 57.7505 87.062 57.0305 87.062C56.3105 87.062 55.7045 87.32 55.2125 87.836C54.7325 88.34 54.4925 89.066 54.4925 90.014C54.4925 90.962 54.7265 91.694 55.1945 92.21C55.6745 92.714 56.2745 92.966 56.9945 92.966ZM68.626 84.884C69.814 84.884 70.774 85.262 71.506 86.018C72.238 86.762 72.604 87.806 72.604 89.15V95H70.084V89.492C70.084 88.7 69.886 88.094 69.49 87.674C69.094 87.242 68.554 87.026 67.87 87.026C67.174 87.026 66.622 87.242 66.214 87.674C65.818 88.094 65.62 88.7 65.62 89.492V95H63.1V85.028H65.62V86.27C65.956 85.838 66.382 85.502 66.898 85.262C67.426 85.01 68.002 84.884 68.626 84.884ZM76.7874 88.7C76.7874 87.464 77.0634 86.36 77.6154 85.388C78.1794 84.404 78.9414 83.642 79.9014 83.102C80.8734 82.55 81.9594 82.274 83.1594 82.274C84.5634 82.274 85.7934 82.634 86.8494 83.354C87.9054 84.074 88.6434 85.07 89.0634 86.342H86.1654C85.8774 85.742 85.4694 85.292 84.9414 84.992C84.4254 84.692 83.8254 84.542 83.1414 84.542C82.4094 84.542 81.7554 84.716 81.1794 85.064C80.6154 85.4 80.1714 85.88 79.8474 86.504C79.5354 87.128 79.3794 87.86 79.3794 88.7C79.3794 89.528 79.5354 90.26 79.8474 90.896C80.1714 91.52 80.6154 92.006 81.1794 92.354C81.7554 92.69 82.4094 92.858 83.1414 92.858C83.8254 92.858 84.4254 92.708 84.9414 92.408C85.4694 92.096 85.8774 91.64 86.1654 91.04H89.0634C88.6434 92.324 87.9054 93.326 86.8494 94.046C85.8054 94.754 84.5754 95.108 83.1594 95.108C81.9594 95.108 80.8734 94.838 79.9014 94.298C78.9414 93.746 78.1794 92.984 77.6154 92.012C77.0634 91.04 76.7874 89.936 76.7874 88.7ZM94.6988 95.162C93.7388 95.162 92.8748 94.952 92.1068 94.532C91.3388 94.1 90.7328 93.494 90.2888 92.714C89.8568 91.934 89.6408 91.034 89.6408 90.014C89.6408 88.994 89.8628 88.094 90.3068 87.314C90.7628 86.534 91.3808 85.934 92.1608 85.514C92.9408 85.082 93.8108 84.866 94.7708 84.866C95.7308 84.866 96.6008 85.082 97.3808 85.514C98.1608 85.934 98.7728 86.534 99.2168 87.314C99.6728 88.094 99.9008 88.994 99.9008 90.014C99.9008 91.034 99.6668 91.934 99.1988 92.714C98.7428 93.494 98.1188 94.1 97.3268 94.532C96.5468 94.952 95.6708 95.162 94.6988 95.162ZM94.6988 92.966C95.1548 92.966 95.5808 92.858 95.9768 92.642C96.3848 92.414 96.7088 92.078 96.9488 91.634C97.1888 91.19 97.3088 90.65 97.3088 90.014C97.3088 89.066 97.0568 88.34 96.5528 87.836C96.0608 87.32 95.4548 87.062 94.7348 87.062C94.0148 87.062 93.4088 87.32 92.9168 87.836C92.4368 88.34 92.1968 89.066 92.1968 90.014C92.1968 90.962 92.4308 91.694 92.8988 92.21C93.3788 92.714 93.9788 92.966 94.6988 92.966ZM106.33 84.884C107.518 84.884 108.478 85.262 109.21 86.018C109.942 86.762 110.308 87.806 110.308 89.15V95H107.788V89.492C107.788 88.7 107.59 88.094 107.194 87.674C106.798 87.242 106.258 87.026 105.574 87.026C104.878 87.026 104.326 87.242 103.918 87.674C103.522 88.094 103.324 88.7 103.324 89.492V95H100.804V85.028H103.324V86.27C103.66 85.838 104.086 85.502 104.602 85.262C105.13 85.01 105.706 84.884 106.33 84.884ZM114.694 87.098V91.922C114.694 92.258 114.772 92.504 114.928 92.66C115.096 92.804 115.372 92.876 115.756 92.876H116.926V95H115.342C113.218 95 112.156 93.968 112.156 91.904V87.098H110.968V85.028H112.156V82.562H114.694V85.028H116.926V87.098H114.694ZM120.313 86.576C120.637 86.048 121.057 85.634 121.573 85.334C122.101 85.034 122.701 84.884 123.373 84.884V87.53H122.707C121.915 87.53 121.315 87.716 120.907 88.088C120.511 88.46 120.313 89.108 120.313 90.032V95H117.793V85.028H120.313V86.576ZM128.554 95.162C127.594 95.162 126.73 94.952 125.962 94.532C125.194 94.1 124.588 93.494 124.144 92.714C123.712 91.934 123.496 91.034 123.496 90.014C123.496 88.994 123.718 88.094 124.162 87.314C124.618 86.534 125.236 85.934 126.016 85.514C126.796 85.082 127.666 84.866 128.626 84.866C129.586 84.866 130.456 85.082 131.236 85.514C132.016 85.934 132.628 86.534 133.072 87.314C133.528 88.094 133.756 88.994 133.756 90.014C133.756 91.034 133.522 91.934 133.054 92.714C132.598 93.494 131.974 94.1 131.182 94.532C130.402 94.952 129.526 95.162 128.554 95.162ZM128.554 92.966C129.01 92.966 129.436 92.858 129.832 92.642C130.24 92.414 130.564 92.078 130.804 91.634C131.044 91.19 131.164 90.65 131.164 90.014C131.164 89.066 130.912 88.34 130.408 87.836C129.916 87.32 129.31 87.062 128.59 87.062C127.87 87.062 127.264 87.32 126.772 87.836C126.292 88.34 126.052 89.066 126.052 90.014C126.052 90.962 126.286 91.694 126.754 92.21C127.234 92.714 127.834 92.966 128.554 92.966ZM137.179 81.68V95H134.659V81.68H137.179ZM3.302 118.508C2.846 118.508 2.426 118.4 2.042 118.184C1.658 117.956 1.352 117.65 1.124 117.266C0.908 116.882 0.8 116.462 0.8 116.006C0.8 115.538 0.908 115.112 1.124 114.728C1.352 114.344 1.658 114.044 2.042 113.828C2.426 113.6 2.846 113.486 3.302 113.486C3.77 113.486 4.196 113.6 4.58 113.828C4.976 114.044 5.282 114.344 5.498 114.728C5.726 115.112 5.84 115.538 5.84 116.006C5.84 116.462 5.726 116.882 5.498 117.266C5.282 117.65 4.976 117.956 4.58 118.184C4.196 118.4 3.77 118.508 3.302 118.508ZM28.0835 109.436L24.5735 122H21.6035L19.2455 113.054L16.7795 122L13.8275 122.018L10.4435 109.436H13.1435L15.3575 119.192L17.9135 109.436H20.7215L23.1335 119.138L25.3655 109.436H28.0835ZM38.054 116.798C38.054 117.158 38.03 117.482 37.982 117.77H30.692C30.752 118.49 31.004 119.054 31.448 119.462C31.892 119.87 32.438 120.074 33.086 120.074C34.022 120.074 34.688 119.672 35.084 118.868H37.802C37.514 119.828 36.962 120.62 36.146 121.244C35.33 121.856 34.328 122.162 33.14 122.162C32.18 122.162 31.316 121.952 30.548 121.532C29.792 121.1 29.198 120.494 28.766 119.714C28.346 118.934 28.136 118.034 28.136 117.014C28.136 115.982 28.346 115.076 28.766 114.296C29.186 113.516 29.774 112.916 30.53 112.496C31.286 112.076 32.156 111.866 33.14 111.866C34.088 111.866 34.934 112.07 35.678 112.478C36.434 112.886 37.016 113.468 37.424 114.224C37.844 114.968 38.054 115.826 38.054 116.798ZM35.444 116.078C35.432 115.43 35.198 114.914 34.742 114.53C34.286 114.134 33.728 113.936 33.068 113.936C32.444 113.936 31.916 114.128 31.484 114.512C31.064 114.884 30.806 115.406 30.71 116.078H35.444ZM41.4683 113.486C41.7923 113.006 42.2363 112.616 42.8003 112.316C43.3763 112.016 44.0303 111.866 44.7623 111.866C45.6143 111.866 46.3823 112.076 47.0663 112.496C47.7623 112.916 48.3083 113.516 48.7043 114.296C49.1123 115.064 49.3163 115.958 49.3163 116.978C49.3163 117.998 49.1123 118.904 48.7043 119.696C48.3083 120.476 47.7623 121.082 47.0663 121.514C46.3823 121.946 45.6143 122.162 44.7623 122.162C44.0183 122.162 43.3643 122.018 42.8003 121.73C42.2483 121.43 41.8043 121.046 41.4683 120.578V122H38.9483V108.68H41.4683V113.486ZM46.7423 116.978C46.7423 116.378 46.6163 115.862 46.3643 115.43C46.1243 114.986 45.8003 114.65 45.3923 114.422C44.9963 114.194 44.5643 114.08 44.0963 114.08C43.6403 114.08 43.2083 114.2 42.8003 114.44C42.4043 114.668 42.0803 115.004 41.8283 115.448C41.5883 115.892 41.4683 116.414 41.4683 117.014C41.4683 117.614 41.5883 118.136 41.8283 118.58C42.0803 119.024 42.4043 119.366 42.8003 119.606C43.2083 119.834 43.6403 119.948 44.0963 119.948C44.5643 119.948 44.9963 119.828 45.3923 119.588C45.8003 119.348 46.1243 119.006 46.3643 118.562C46.6163 118.118 46.7423 117.59 46.7423 116.978ZM57.9386 109.436C59.2586 109.436 60.4166 109.694 61.4126 110.21C62.4206 110.726 63.1946 111.464 63.7346 112.424C64.2866 113.372 64.5626 114.476 64.5626 115.736C64.5626 116.996 64.2866 118.1 63.7346 119.048C63.1946 119.984 62.4206 120.71 61.4126 121.226C60.4166 121.742 59.2586 122 57.9386 122H53.5466V109.436H57.9386ZM57.8486 119.858C59.1686 119.858 60.1886 119.498 60.9086 118.778C61.6286 118.058 61.9886 117.044 61.9886 115.736C61.9886 114.428 61.6286 113.408 60.9086 112.676C60.1886 111.932 59.1686 111.56 57.8486 111.56H56.0666V119.858H57.8486ZM74.774 116.798C74.774 117.158 74.75 117.482 74.702 117.77H67.412C67.472 118.49 67.724 119.054 68.168 119.462C68.612 119.87 69.158 120.074 69.806 120.074C70.742 120.074 71.408 119.672 71.804 118.868H74.522C74.234 119.828 73.682 120.62 72.866 121.244C72.05 121.856 71.048 122.162 69.86 122.162C68.9 122.162 68.036 121.952 67.268 121.532C66.512 121.1 65.918 120.494 65.486 119.714C65.066 118.934 64.856 118.034 64.856 117.014C64.856 115.982 65.066 115.076 65.486 114.296C65.906 113.516 66.494 112.916 67.25 112.496C68.006 112.076 68.876 111.866 69.86 111.866C70.808 111.866 71.654 112.07 72.398 112.478C73.154 112.886 73.736 113.468 74.144 114.224C74.564 114.968 74.774 115.826 74.774 116.798ZM72.164 116.078C72.152 115.43 71.918 114.914 71.462 114.53C71.006 114.134 70.448 113.936 69.788 113.936C69.164 113.936 68.636 114.128 68.204 114.512C67.784 114.884 67.526 115.406 67.43 116.078H72.164ZM79.8263 119.678L82.3463 112.028H85.0283L81.3383 122H78.2783L74.6063 112.028H77.3063L79.8263 119.678ZM94.7687 116.798C94.7687 117.158 94.7447 117.482 94.6967 117.77H87.4067C87.4667 118.49 87.7187 119.054 88.1627 119.462C88.6067 119.87 89.1527 120.074 89.8007 120.074C90.7367 120.074 91.4027 119.672 91.7987 118.868H94.5167C94.2287 119.828 93.6767 120.62 92.8607 121.244C92.0447 121.856 91.0427 122.162 89.8547 122.162C88.8947 122.162 88.0307 121.952 87.2627 121.532C86.5067 121.1 85.9127 120.494 85.4807 119.714C85.0607 118.934 84.8507 118.034 84.8507 117.014C84.8507 115.982 85.0607 115.076 85.4807 114.296C85.9007 113.516 86.4887 112.916 87.2447 112.496C88.0007 112.076 88.8707 111.866 89.8547 111.866C90.8027 111.866 91.6487 112.07 92.3927 112.478C93.1487 112.886 93.7307 113.468 94.1387 114.224C94.5587 114.968 94.7687 115.826 94.7687 116.798ZM92.1587 116.078C92.1467 115.43 91.9127 114.914 91.4567 114.53C91.0007 114.134 90.4427 113.936 89.7827 113.936C89.1587 113.936 88.6307 114.128 88.1987 114.512C87.7787 114.884 87.5207 115.406 87.4247 116.078H92.1587ZM98.1831 108.68V122H95.6631V108.68H98.1831ZM104.156 122.162C103.196 122.162 102.332 121.952 101.564 121.532C100.796 121.1 100.19 120.494 99.7459 119.714C99.3139 118.934 99.0979 118.034 99.0979 117.014C99.0979 115.994 99.3199 115.094 99.7639 114.314C100.22 113.534 100.838 112.934 101.618 112.514C102.398 112.082 103.268 111.866 104.228 111.866C105.188 111.866 106.058 112.082 106.838 112.514C107.618 112.934 108.23 113.534 108.674 114.314C109.13 115.094 109.358 115.994 109.358 117.014C109.358 118.034 109.124 118.934 108.656 119.714C108.2 120.494 107.576 121.1 106.784 121.532C106.004 121.952 105.128 122.162 104.156 122.162ZM104.156 119.966C104.612 119.966 105.038 119.858 105.434 119.642C105.842 119.414 106.166 119.078 106.406 118.634C106.646 118.19 106.766 117.65 106.766 117.014C106.766 116.066 106.514 115.34 106.01 114.836C105.518 114.32 104.912 114.062 104.192 114.062C103.472 114.062 102.866 114.32 102.374 114.836C101.894 115.34 101.654 116.066 101.654 117.014C101.654 117.962 101.888 118.694 102.356 119.21C102.836 119.714 103.436 119.966 104.156 119.966ZM112.781 113.468C113.105 113.012 113.549 112.634 114.113 112.334C114.689 112.022 115.343 111.866 116.075 111.866C116.927 111.866 117.695 112.076 118.379 112.496C119.075 112.916 119.621 113.516 120.017 114.296C120.425 115.064 120.629 115.958 120.629 116.978C120.629 117.998 120.425 118.904 120.017 119.696C119.621 120.476 119.075 121.082 118.379 121.514C117.695 121.946 116.927 122.162 116.075 122.162C115.343 122.162 114.695 122.012 114.131 121.712C113.579 121.412 113.129 121.034 112.781 120.578V126.752H110.261V112.028H112.781V113.468ZM118.055 116.978C118.055 116.378 117.929 115.862 117.677 115.43C117.437 114.986 117.113 114.65 116.705 114.422C116.309 114.194 115.877 114.08 115.409 114.08C114.953 114.08 114.521 114.2 114.113 114.44C113.717 114.668 113.393 115.004 113.141 115.448C112.901 115.892 112.781 116.414 112.781 117.014C112.781 117.614 112.901 118.136 113.141 118.58C113.393 119.024 113.717 119.366 114.113 119.606C114.521 119.834 114.953 119.948 115.409 119.948C115.877 119.948 116.309 119.828 116.705 119.588C117.113 119.348 117.437 119.006 117.677 118.562C117.929 118.118 118.055 117.59 118.055 116.978ZM133.9 111.884C135.124 111.884 136.108 112.262 136.852 113.018C137.608 113.762 137.986 114.806 137.986 116.15V122H135.466V116.492C135.466 115.712 135.268 115.118 134.872 114.71C134.476 114.29 133.936 114.08 133.252 114.08C132.568 114.08 132.022 114.29 131.614 114.71C131.218 115.118 131.02 115.712 131.02 116.492V122H128.5V116.492C128.5 115.712 128.302 115.118 127.906 114.71C127.51 114.29 126.97 114.08 126.286 114.08C125.59 114.08 125.038 114.29 124.63 114.71C124.234 115.118 124.036 115.712 124.036 116.492V122H121.516V112.028H124.036V113.234C124.36 112.814 124.774 112.484 125.278 112.244C125.794 112.004 126.358 111.884 126.97 111.884C127.75 111.884 128.446 112.052 129.058 112.388C129.67 112.712 130.144 113.18 130.48 113.792C130.804 113.216 131.272 112.754 131.884 112.406C132.508 112.058 133.18 111.884 133.9 111.884ZM148.702 116.798C148.702 117.158 148.678 117.482 148.63 117.77H141.34C141.4 118.49 141.652 119.054 142.096 119.462C142.54 119.87 143.086 120.074 143.734 120.074C144.67 120.074 145.336 119.672 145.732 118.868H148.45C148.162 119.828 147.61 120.62 146.794 121.244C145.978 121.856 144.976 122.162 143.788 122.162C142.828 122.162 141.964 121.952 141.196 121.532C140.44 121.1 139.846 120.494 139.414 119.714C138.994 118.934 138.784 118.034 138.784 117.014C138.784 115.982 138.994 115.076 139.414 114.296C139.834 113.516 140.422 112.916 141.178 112.496C141.934 112.076 142.804 111.866 143.788 111.866C144.736 111.866 145.582 112.07 146.326 112.478C147.082 112.886 147.664 113.468 148.072 114.224C148.492 114.968 148.702 115.826 148.702 116.798ZM146.092 116.078C146.08 115.43 145.846 114.914 145.39 114.53C144.934 114.134 144.376 113.936 143.716 113.936C143.092 113.936 142.564 114.128 142.132 114.512C141.712 114.884 141.454 115.406 141.358 116.078H146.092ZM155.122 111.884C156.31 111.884 157.27 112.262 158.002 113.018C158.734 113.762 159.1 114.806 159.1 116.15V122H156.58V116.492C156.58 115.7 156.382 115.094 155.986 114.674C155.59 114.242 155.05 114.026 154.366 114.026C153.67 114.026 153.118 114.242 152.71 114.674C152.314 115.094 152.116 115.7 152.116 116.492V122H149.596V112.028H152.116V113.27C152.452 112.838 152.878 112.502 153.394 112.262C153.922 112.01 154.498 111.884 155.122 111.884ZM163.486 114.098V118.922C163.486 119.258 163.564 119.504 163.72 119.66C163.888 119.804 164.164 119.876 164.548 119.876H165.718V122H164.134C162.01 122 160.948 120.968 160.948 118.904V114.098H159.76V112.028H160.948V109.562H163.486V112.028H165.718V114.098H163.486Z" fill="white"/>
</svg>
