<svg width="24" height="21" viewBox="0 0 24 21" fill="none" xmlns="http://www.w3.org/2000/svg">
<path d="M24 3.0585C23.1075 3.45 22.1565 3.7095 21.165 3.8355C22.185 3.2265 22.9635 2.2695 23.3295 1.116C22.3785 1.683 21.3285 2.0835 20.2095 2.307C19.3065 1.3455 18.0195 0.75 16.6155 0.75C13.8915 0.75 11.6985 2.961 11.6985 5.6715C11.6985 6.0615 11.7315 6.4365 11.8125 6.7935C7.722 6.594 4.1025 4.6335 1.671 1.647C1.2465 2.3835 0.9975 3.2265 0.9975 4.134C0.9975 5.838 1.875 7.3485 3.183 8.223C2.3925 8.208 1.617 7.9785 0.96 7.617C0.96 7.632 0.96 7.6515 0.96 7.671C0.96 10.062 2.6655 12.048 4.902 12.5055C4.5015 12.615 4.065 12.6675 3.612 12.6675C3.297 12.6675 2.979 12.6495 2.6805 12.5835C3.318 14.532 5.127 15.9645 7.278 16.011C5.604 17.3205 3.4785 18.1095 1.1775 18.1095C0.774 18.1095 0.387 18.0915 0 18.042C2.1795 19.4475 4.7625 20.25 7.548 20.25C16.602 20.25 21.552 12.75 21.552 6.249C21.552 6.0315 21.5445 5.8215 21.534 5.613C22.5105 4.92 23.331 4.0545 24 3.0585Z" fill="white"/>
</svg>
